 <svg  version="1.0" xmlns="http://www.w3.org/2000/svg"  width="300.000000pt" height="237.000000pt" viewBox="0 0 300.000000 237.000000"  preserveAspectRatio="xMidYMid meet">  <g transform="translate(0.000000,237.000000) scale(0.100000,-0.100000)" fill="#ffffff" stroke="none"> <path d="M1107 2266 c-69 -29 -129 -68 -162 -108 l-24 -28 -143 25 c-194 35 -393 44 -472 21 -83 -24 -167 -108 -186 -184 -23 -99 10 -201 92 -278 91 -86 157 -116 321 -143 62 -10 127 -26 145 -36 39 -20 101 -30 136 -21 13 3 38 17 54 31 l30 25 5 -23 c2 -12 8 -31 13 -42 7 -18 6 -19 -9 -6 -10 8 -21 11 -25 7 -4 -4 4 -16 18 -26 26 -21 12 -27 -21 -10 -12 7 -19 7 -19 1 0 -17 40 -33 65 -27 56 14 54 -46 -5 -134 -35 -53 -38 -89 -10 -162 18 -48 40 -81 134 -201 l28 -37 -51 -46 c-64 -58 -101 -127 -101 -189 0 -58 16 -96 69 -162 22 -29 41 -55 41 -58 0 -2 -19 -14 -42 -26 -71 -36 -185 -119 -211 -152 -13 -18 -52 -87 -85 -154 -53 -106 -59 -123 -43 -123 14 0 22 10 26 31 8 34 21 29 28 -11 2 -15 5 -7 6 20 1 47 52 168 92 218 37 48 119 102 153 102 57 0 78 -10 72 -34 -11 -38 -25 -150 -30 -238 -4 -70 -2 -88 9 -88 9 0 15 20 19 67 15 173 27 263 44 316 10 32 20 59 23 59 2 1 19 -5 37 -12 35 -16 37 -24 22 -66 -6 -15 -19 -90 -30 -168 -11 -77 -22 -153 -25 -168 -3 -20 0 -28 10 -28 8 0 15 6 15 13 1 6 11 82 24 166 21 139 26 157 49 177 l25 22 -31 30 c-18 16 -43 35 -55 42 -18 8 -22 17 -18 33 7 28 -20 57 -54 57 -42 0 -110 81 -110 132 0 41 46 122 99 173 54 53 68 54 24 1 -14 -17 -37 -56 -50 -86 -14 -30 -31 -62 -40 -72 -13 -15 -11 -20 24 -59 43 -47 162 -142 261 -208 66 -43 66 -44 45 -61 -17 -13 -19 -20 -10 -30 10 -10 7 -11 -13 -6 -63 16 -72 15 -32 -4 36 -16 42 -23 37 -42 -11 -49 -35 -219 -35 -248 0 -75 17 -15 44 150 21 132 32 180 42 180 18 0 19 12 -19 -188 -19 -94 -30 -172 -25 -172 15 0 85 156 128 284 62 187 132 275 160 200 9 -23 7 -33 -16 -66 -15 -21 -53 -114 -84 -206 -78 -227 -74 -212 -56 -212 10 0 31 48 68 161 l53 161 65 18 c97 25 180 62 309 137 176 101 188 106 271 111 74 4 76 3 135 -36 80 -53 256 -225 290 -285 l27 -47 -28 -22 c-40 -30 -153 -149 -166 -173 -6 -11 33 24 86 78 53 53 104 97 114 97 13 0 22 -12 31 -43 28 -95 54 -157 67 -157 8 0 14 2 14 4 0 14 -82 232 -93 249 -60 89 -239 267 -269 267 -4 0 -8 7 -8 15 0 8 8 15 18 15 24 0 74 54 103 110 19 37 24 65 27 155 3 100 1 122 -32 250 -55 217 -67 257 -84 283 -17 26 -71 56 -120 67 -22 4 -33 13 -36 28 -25 128 -85 313 -118 366 -10 17 -7 25 25 60 79 88 130 198 143 309 l7 62 -34 0 c-45 0 -192 -36 -231 -56 -17 -9 -53 -37 -80 -62 l-49 -46 -27 18 c-97 63 -338 153 -482 180 -126 24 -252 21 -323 -8z m312 -11 c119 -23 313 -90 411 -142 47 -25 87 -47 89 -49 11 -10 -46 -54 -78 -60 -40 -7 -81 -39 -81 -64 0 -8 14 -28 31 -43 37 -32 79 -92 79 -113 0 -8 7 -17 16 -21 8 -3 13 -12 10 -20 -9 -23 25 -28 75 -10 64 23 71 22 108 -18 42 -46 66 -47 56 -2 -11 47 -11 86 0 89 12 4 68 -147 100 -271 30 -113 31 -164 6 -256 -19 -65 -19 -74 -5 -123 9 -30 14 -55 12 -56 -1 -1 -30 -23 -63 -48 -33 -25 -102 -73 -153 -106 -162 -107 -303 -221 -446 -363 l-138 -138 -65 -7 c-80 -8 -94 -2 -221 96 -137 106 -153 140 -107 230 42 84 123 159 157 148 7 -3 17 -31 24 -64 7 -32 15 -71 19 -85 6 -25 2 -29 -52 -54 -79 -36 -111 -42 -119 -21 -6 15 27 94 50 119 6 7 20 24 31 37 19 24 19 24 0 10 -34 -26 -63 -64 -86 -112 -19 -40 -20 -52 -11 -73 7 -15 20 -25 32 -25 104 0 440 271 580 468 107 151 144 252 162 440 l11 122 -43 88 c-34 68 -60 103 -119 162 -42 41 -90 83 -107 92 -30 17 -33 17 -57 -2 l-25 -20 -53 30 c-80 44 -200 80 -316 93 -102 11 -103 11 -84 32 10 11 28 38 41 60 13 22 25 42 26 44 17 22 196 26 303 6z m-339 -30 c0 -3 -15 -28 -32 -55 -33 -50 -42 -54 -88 -41 -23 6 -21 9 40 54 61 44 80 54 80 42z m1204 -83 c-8 -62 -53 -157 -110 -234 -55 -76 -85 -101 -154 -128 -86 -34 -92 -18 -10 28 82 47 64 49 -21 2 l-53 -29 -26 27 -26 27 24 35 c16 23 17 27 4 13 -19 -22 -60 -33 -48 -14 3 5 -1 14 -9 21 -8 7 -15 20 -15 29 0 9 44 62 98 118 106 111 162 145 262 161 78 12 93 3 84 -56z m-1658 14 c120 -16 151 -32 192 -100 37 -61 75 -144 70 -155 -4 -10 -258 63 -327 95 -30 13 -74 42 -98 64 -50 47 -79 60 -134 60 -34 0 -99 -22 -99 -34 0 -2 22 3 49 11 67 19 115 5 178 -51 26 -24 71 -55 98 -68 51 -26 228 -80 302 -93 43 -7 64 -31 41 -47 -19 -13 -89 0 -218 39 -144 43 -176 61 -231 130 -55 70 -88 87 -148 79 -56 -8 -83 -25 -121 -78 -68 -93 -24 -225 104 -312 55 -39 161 -79 236 -91 67 -11 42 4 -46 26 -186 48 -304 155 -304 276 0 49 4 57 41 98 27 29 53 47 75 51 64 12 114 -15 114 -62 0 -15 4 -23 10 -19 6 4 33 -14 61 -39 45 -40 68 -51 191 -91 174 -56 225 -59 262 -14 19 22 32 29 44 24 9 -3 35 -9 57 -11 22 -3 110 -23 195 -44 211 -53 310 -70 389 -69 66 1 66 1 -39 16 -58 7 -161 27 -230 44 -69 16 -179 41 -244 55 -140 30 -186 47 -186 69 0 10 -15 53 -34 96 l-34 79 31 1 c28 1 27 2 -12 10 -64 12 -65 23 -1 16 30 -4 109 -11 175 -17 160 -14 268 -41 387 -97 101 -48 130 -73 237 -211 49 -63 37 -83 -66 -111 -184 -49 -388 -9 -522 103 -55 46 -65 46 -20 0 77 -81 203 -130 359 -141 36 -3 67 -9 70 -13 3 -5 34 -2 70 5 104 22 164 2 203 -68 39 -68 41 -90 11 -191 -42 -147 -81 -208 -181 -286 -14 -11 -123 -63 -233 -110 -91 -39 -228 -80 -246 -73 -7 2 -17 17 -22 31 -5 15 -28 50 -51 77 -45 53 -93 141 -105 188 -5 21 1 44 24 88 16 33 30 66 30 74 0 9 10 15 24 15 34 0 50 24 40 57 l-8 28 -4 -32 c-2 -25 -8 -33 -23 -33 -14 0 -19 7 -19 30 0 21 -4 28 -14 24 -17 -7 -25 18 -22 64 2 27 0 31 -16 26 -14 -4 -18 0 -18 19 0 36 -21 39 -80 10 -35 -16 -63 -23 -84 -20 -54 8 -150 55 -178 87 -33 36 -35 33 -8 -16 12 -20 19 -38 18 -40 -6 -5 -150 27 -205 46 -104 36 -208 132 -237 217 -23 67 -20 121 10 181 64 128 198 164 470 128z m970 -195 c91 -66 153 -143 199 -244 28 -62 40 -117 27 -117 -5 0 -45 51 -88 112 -44 62 -107 145 -142 185 -56 64 -69 93 -43 93 4 0 26 -13 47 -29z m131 -268 c4 -10 20 -34 36 -54 20 -26 28 -45 25 -65 l-3 -29 -22 35 c-20 33 -103 92 -103 74 0 -5 -5 -3 -12 4 -8 8 -5 16 13 31 30 25 58 27 66 4z m633 -315 c56 -29 81 -71 83 -140 2 -120 -103 -232 -398 -428 -181 -120 -308 -215 -396 -298 l-36 -34 -7 26 c-3 14 -13 26 -21 26 -8 0 -15 4 -15 10 0 22 219 201 425 348 256 183 281 204 335 284 58 87 51 135 -22 153 -24 6 -28 12 -28 41 0 42 16 44 80 12z m-50 -104 c0 -8 6 -14 13 -15 10 0 10 -2 0 -6 -7 -2 -13 -20 -13 -39 0 -21 -8 -42 -20 -54 l-20 -20 -11 27 c-12 32 -8 59 9 56 7 -2 12 10 12 30 0 19 3 37 6 40 10 9 24 -2 24 -19z m186 -237 c39 -158 36 -312 -6 -377 -8 -12 -13 -11 -37 12 -56 52 -89 62 -225 66 -133 5 -218 -3 -218 -19 0 -5 18 -9 41 -9 48 0 150 -25 192 -47 18 -9 26 -10 22 -3 -7 11 -70 43 -87 44 -5 1 -7 6 -5 11 3 14 137 10 184 -5 43 -14 93 -56 93 -78 0 -14 -12 -26 -57 -58 -21 -15 -26 -14 -76 15 -65 37 -106 39 -222 12 -44 -10 -132 -29 -195 -42 -93 -20 -129 -33 -195 -70 -44 -26 -82 -45 -84 -43 -16 15 193 183 393 317 249 165 365 264 417 355 13 22 27 38 30 36 4 -2 20 -55 35 -117z m-915 16 c-14 -27 -179 -186 -234 -228 -27 -20 -55 -34 -61 -32 -15 6 -40 117 -29 128 5 4 62 30 128 58 66 28 134 60 150 70 39 26 59 27 46 4z m429 -501 c0 -11 -191 -121 -244 -142 -20 -7 -24 -6 -19 5 7 19 -8 19 -33 0 -14 -11 -15 -14 -4 -15 10 0 9 -4 -5 -14 -23 -16 -126 -48 -133 -41 -7 7 70 74 118 102 25 15 56 36 70 48 21 19 67 34 185 58 35 8 65 7 65 -1z m-915 -62 c0 -38 -39 -35 -43 3 -3 25 0 28 20 25 17 -2 23 -9 23 -28z m333 -152 c-5 -15 -58 -24 -58 -10 0 15 12 22 38 22 14 0 22 -5 20 -12z m-28 -45 c0 -5 -8 -29 -18 -55 -18 -48 -39 -79 -29 -43 3 11 9 39 12 63 4 26 12 42 21 42 8 0 14 -3 14 -7z"/> <path d="M1951 1309 c-45 -60 -139 -163 -238 -259 -246 -241 -421 -381 -531 -426 -55 -23 -56 -24 -22 -24 43 0 92 25 190 98 203 151 508 443 601 576 55 78 63 73 20 -12 -29 -57 -82 -122 -257 -323 -50 -57 -122 -143 -161 -191 -76 -93 -188 -266 -179 -276 7 -7 1 -15 78 103 64 97 233 307 346 430 114 123 182 218 212 297 54 140 40 142 -59 7z"/> <path d="M2118 1269 c-42 -55 -166 -191 -275 -302 -206 -209 -310 -327 -382 -434 -51 -76 -41 -83 14 -11 83 109 235 278 435 483 97 99 191 202 209 228 42 61 52 54 15 -10 -41 -69 -118 -157 -281 -323 -79 -80 -150 -156 -159 -169 -39 -55 27 3 187 166 178 182 254 275 294 359 29 61 42 114 28 114 -5 0 -44 -45 -85 -101z"/> <path d="M2185 1154 c-9 -14 -56 -69 -103 -121 -47 -53 -77 -91 -66 -85 38 20 181 171 188 197 9 37 2 41 -19 9z"/> <path d="M2065 2131 c-57 -35 -161 -167 -153 -193 3 -7 12 2 21 22 18 38 92 120 131 145 13 9 34 18 46 20 13 2 25 7 29 11 3 4 -2 4 -11 1 -10 -4 -18 -2 -18 3 0 15 -11 12 -45 -9z"/> <path d="M877 1714 c-4 -4 -7 -23 -6 -43 l1 -36 9 33 c11 36 9 58 -4 46z"/> <path d="M908 1673 c-6 -42 -4 -48 11 -38 13 8 15 75 2 75 -5 0 -11 -17 -13 -37z"/> <path d="M1455 1580 c-3 -5 -18 -10 -33 -10 -20 0 -23 -3 -14 -12 7 -7 12 -20 12 -30 0 -24 8 -23 35 6 25 27 58 28 63 2 5 -23 -23 -53 -70 -77 -21 -10 -40 -19 -43 -19 -3 0 -5 19 -6 43 0 23 -4 51 -8 62 -8 19 -8 19 -15 -3 -4 -13 -5 -41 -1 -62 l7 -40 -45 0 c-31 0 -47 -5 -51 -16 -4 -9 -2 -13 5 -8 6 4 46 7 88 8 83 2 125 22 152 73 7 14 27 32 44 41 l30 16 -25 4 c-13 2 -33 10 -44 18 -24 16 -72 19 -81 4z"/> <path d="M1300 1497 c0 -30 4 -46 10 -42 13 8 13 55 0 75 -7 11 -10 2 -10 -33z"/> <path d="M1249 1499 l-17 -37 -93 4 -94 3 86 -9 c48 -4 97 -13 109 -20 29 -15 32 -11 28 46 l-3 49 -16 -36z"/> <path d="M1000 1345 c-14 -17 -5 -51 16 -59 24 -9 54 12 53 37 l0 22 -9 -22 c-10 -26 -45 -31 -54 -8 -3 8 4 21 17 30 16 11 18 15 5 15 -8 0 -21 -7 -28 -15z"/> <path d="M1013 1088 c2 -7 11 -11 18 -9 8 2 29 3 47 2 17 -1 32 3 32 9 0 5 -23 10 -51 10 -36 0 -49 -4 -46 -12z"/> <path d="M1040 1031 c0 -15 16 -22 34 -15 25 9 19 24 -9 24 -14 0 -25 -4 -25 -9z"/> <path d="M2418 194 c-4 -6 -14 -42 -22 -80 -8 -38 -18 -79 -22 -91 -3 -13 -2 -23 4 -23 5 0 13 10 16 23 7 21 7 21 15 2 8 -19 9 -19 15 5 9 32 3 178 -6 164z"/> <path d="M2312 115 c-25 -114 -25 -115 -8 -115 21 0 28 32 24 110 l-3 65 -13 -60z"/> <path d="M1566 49 c-14 -17 -26 -35 -26 -40 0 -18 19 -8 40 21 21 30 53 39 65 20 4 -7 12 -7 25 0 29 16 35 -7 8 -30 -16 -13 -18 -19 -8 -20 8 0 24 12 36 27 19 23 25 26 36 15 11 -11 10 -14 -2 -22 -8 -5 -11 -12 -7 -16 4 -4 18 3 32 16 16 15 30 20 42 16 17 -7 17 -8 -1 -22 -17 -12 -17 -14 -4 -14 9 0 20 5 23 10 8 13 52 13 60 0 4 -7 12 -7 25 0 13 7 21 7 25 0 3 -5 18 -10 33 -9 32 1 -64 31 -148 47 -30 6 -79 15 -108 21 -91 18 -117 15 -146 -20z"/> <path d="M2586 62 c-3 -5 -10 -21 -15 -36 -8 -20 -7 -26 3 -26 7 0 16 14 20 32 6 32 3 47 -8 30z"/> </g> </svg> 