<svg width="36.32" height="15.864" viewBox="0 0 36.32 15.864" xmlns="http://www.w3.org/2000/svg"><g id="svgGroup" stroke-linecap="round" fill-rule="evenodd" font-size="9pt" stroke="#ffffff" stroke-width="0.25mm" fill="#ffffff" style="stroke:#ffffff;stroke-width:0.25mm;fill:#ffffff"><path d="M 33.08 6.844 L 32.78 6.904 Q 32.56 6.964 32.56 7.034 Q 32.56 7.104 33.04 7.284 Q 33.52 7.464 33.95 7.844 Q 34.38 8.224 34.56 8.764 Q 34.84 9.584 34.84 10.524 Q 34.84 11.464 34.98 12.074 Q 35.12 12.684 35.32 13.004 Q 35.72 13.684 36.06 13.844 L 36.2 13.924 Q 36.32 14.004 36.32 14.124 Q 36.32 14.424 35.34 14.654 Q 34.36 14.884 33.82 14.884 Q 32.76 14.884 32.47 14.034 Q 32.18 13.184 32.18 11.124 L 32.18 10.024 Q 32.18 8.284 31.14 7.804 Q 30.74 7.624 30.18 7.624 L 30.16 7.624 Q 29.98 7.624 29.98 7.274 Q 29.98 6.924 30.19 6.564 Q 30.4 6.204 30.56 6.204 Q 31.22 6.204 31.7 5.954 Q 32.18 5.704 32.4 5.344 Q 32.86 4.584 32.9 4.044 L 32.9 3.784 Q 32.9 3.044 32.66 2.534 Q 32.42 2.024 32.06 1.824 Q 31.46 1.504 30.84 1.504 Q 30.22 1.504 29.82 1.604 Q 29.26 1.764 29.26 1.944 Q 29.08 4.564 29.08 6.994 Q 29.08 9.424 29.15 10.714 Q 29.22 12.004 29.29 12.794 Q 29.36 13.584 29.36 13.724 Q 29.36 13.984 29.22 14.084 Q 28.4 14.844 26.64 14.844 Q 26.34 14.844 26.34 14.644 Q 26.34 14.584 26.4 14.364 Q 26.6 13.904 26.69 11.444 Q 26.78 8.984 26.78 6.954 Q 26.78 4.924 26.7 3.664 Q 26.58 1.764 26.3 1.384 Q 26.08 1.104 26.08 0.994 Q 26.08 0.884 26.3 0.764 Q 27.58 0.164 30.94 0.164 Q 33.64 0.164 34.98 1.684 Q 35.7 2.524 35.7 3.784 Q 35.7 4.544 35.4 5.144 Q 35.1 5.744 34.66 6.064 Q 33.82 6.704 33.08 6.844 Z M 5.82 14.464 L 4.68 14.444 L 4.2 14.444 L 0.56 14.624 Q 0.26 14.624 0.26 14.424 Q 0.26 14.364 0.32 14.144 Q 0.52 13.684 0.61 11.224 Q 0.7 8.764 0.7 6.734 Q 0.7 4.704 0.62 3.444 Q 0.5 1.544 0.22 1.164 Q 0 0.884 0 0.804 Q 0 0.484 1.08 0.244 Q 2.16 0.004 2.63 0.004 Q 3.1 0.004 3.22 0.054 Q 3.34 0.104 3.34 0.264 A 18.445 18.445 0 0 1 3.26 1.284 Q 3.06 3.824 3.06 7.194 Q 3.06 10.564 3.22 12.584 Q 3.22 12.804 3.6 12.964 Q 3.98 13.124 4.54 13.124 Q 6.5 13.124 6.5 10.104 Q 6.5 9.264 6.41 9.064 Q 6.32 8.864 6.32 8.804 Q 6.32 8.604 6.6 8.604 Q 6.82 8.604 7.19 8.824 Q 7.56 9.044 7.8 9.374 Q 8.04 9.704 8.24 10.414 Q 8.44 11.124 8.44 12.084 Q 8.44 14.464 7.86 14.464 L 5.82 14.464 Z M 15.44 12.064 Q 15.44 12.824 15.13 13.394 Q 14.82 13.964 14.43 14.234 Q 14.04 14.504 13.52 14.664 Q 12.86 14.864 12.26 14.864 Q 10.58 14.864 9.78 13.604 Q 8.98 12.344 8.98 10.394 Q 8.98 8.444 9.97 6.924 Q 10.96 5.404 12.94 5.404 Q 14.74 5.404 15.38 6.664 Q 15.64 7.144 15.64 7.574 Q 15.64 8.004 15.6 8.254 Q 15.56 8.504 15.32 9.004 Q 15.08 9.504 14.68 9.904 Q 14.28 10.304 13.42 10.664 Q 12.56 11.024 11.4 11.144 Q 11.24 11.144 11.24 11.284 Q 11.24 11.464 11.37 11.814 Q 11.5 12.164 11.66 12.404 Q 12.1 12.964 12.96 12.964 Q 13.82 12.964 14.42 12.404 Q 14.74 12.104 14.94 11.664 Q 15.02 11.504 15.15 11.504 Q 15.28 11.504 15.36 11.724 Q 15.44 11.944 15.44 12.064 Z M 23.98 15.864 L 17.08 15.864 Q 16.82 15.864 16.82 15.484 Q 16.82 14.704 17.6 14.704 L 24.44 14.644 Q 24.7 14.644 24.7 14.864 Q 24.7 15.864 23.98 15.864 Z M 11.08 9.404 L 11.1 9.904 Q 11.1 10.024 11.26 10.024 Q 11.9 9.964 12.38 9.694 Q 12.86 9.424 13.1 9.084 Q 13.58 8.344 13.62 7.804 L 13.64 7.564 Q 13.64 6.484 12.78 6.484 Q 12.14 6.484 11.74 7.044 Q 11.08 7.924 11.08 9.404 Z" vector-effect="non-scaling-stroke"/></g></svg>