<svg width="683.8" height="204.203" viewBox="0 0 683.8 204.203" xmlns="http://www.w3.org/2000/svg"><g id="svgGroup" stroke-linecap="round" fill-rule="evenodd" font-size="9pt" stroke="#ffffff" stroke-width="0.25mm" fill="#ffffff" style="stroke:#ffffff;stroke-width:0.25mm;fill:#ffffff"><path d="M 70 66.802 L 67 67.402 A 11.815 11.815 0 0 0 66.266 67.626 Q 64.8 68.131 64.8 68.702 A 0.508 0.508 0 0 0 64.998 69.032 Q 65.639 69.639 68.351 70.72 A 65.148 65.148 0 0 0 69.6 71.202 A 27.946 27.946 0 0 1 76.38 74.925 A 33.78 33.78 0 0 1 78.7 76.802 Q 83 80.602 84.8 86.002 Q 87.6 94.202 87.6 103.602 A 104.763 104.763 0 0 0 87.765 109.675 Q 87.938 112.641 88.291 115.183 A 45.63 45.63 0 0 0 89 119.102 A 51.581 51.581 0 0 0 89.934 122.631 Q 91.025 126.202 92.4 128.402 Q 96.4 135.202 99.8 136.802 L 101.2 137.602 A 3.276 3.276 0 0 1 101.833 138.141 A 2.131 2.131 0 0 1 102.4 139.602 A 2.366 2.366 0 0 1 101.581 141.278 Q 99.965 142.874 95.162 144.242 A 56.605 56.605 0 0 1 92.6 144.902 Q 84.107 146.895 78.919 147.161 A 29.735 29.735 0 0 1 77.4 147.202 A 20.028 20.028 0 0 1 72.379 146.62 Q 66.041 144.978 63.9 138.702 A 37.688 37.688 0 0 1 62.564 133.333 Q 61.513 127.553 61.168 118.827 A 234.624 234.624 0 0 1 61 109.602 L 61 98.602 Q 61 81.202 50.6 76.402 Q 46.6 74.602 41 74.602 L 40.8 74.602 Q 39 74.602 39 71.102 A 12.702 12.702 0 0 1 39.82 66.688 A 17.01 17.01 0 0 1 41.1 64.002 A 19.461 19.461 0 0 1 41.932 62.688 Q 43.333 60.677 44.488 60.435 A 1.516 1.516 0 0 1 44.8 60.402 A 29.355 29.355 0 0 0 50.23 59.924 A 21.418 21.418 0 0 0 56.2 57.902 A 22.263 22.263 0 0 0 59.553 55.781 Q 61.409 54.345 62.639 52.644 A 13.011 13.011 0 0 0 63.2 51.802 A 51.93 51.93 0 0 0 65.613 47.375 Q 67.844 42.719 68.179 39.056 A 14.806 14.806 0 0 0 68.2 38.802 L 68.2 36.202 Q 68.2 29.915 66.468 25.288 A 21.094 21.094 0 0 0 65.8 23.702 A 21.459 21.459 0 0 0 64.008 20.562 Q 62.163 17.915 59.8 16.602 A 27.261 27.261 0 0 0 52.413 13.89 A 24 24 0 0 0 47.6 13.402 A 63.688 63.688 0 0 0 43.597 13.52 Q 40.025 13.746 37.4 14.402 A 30.023 30.023 0 0 0 35.515 15.003 Q 32.84 15.963 32.091 16.991 A 1.368 1.368 0 0 0 31.8 17.802 A 753.734 753.734 0 0 0 30.063 59.123 A 670.681 670.681 0 0 0 30 68.302 A 1406.05 1406.05 0 0 0 30.044 79.74 Q 30.175 95.827 30.7 105.502 Q 31.326 117.042 31.952 124.58 A 314.252 314.252 0 0 0 32.1 126.302 Q 32.723 133.338 32.792 135.218 A 10.934 10.934 0 0 1 32.8 135.602 A 7.546 7.546 0 0 1 32.701 136.871 Q 32.587 137.541 32.339 138.06 A 2.918 2.918 0 0 1 31.4 139.202 A 24.783 24.783 0 0 1 22.998 144.193 Q 15.913 146.802 5.6 146.802 A 6.657 6.657 0 0 1 4.543 146.726 Q 2.689 146.426 2.604 144.947 A 2.525 2.525 0 0 1 2.6 144.802 A 2.551 2.551 0 0 1 2.628 144.471 Q 2.729 143.73 3.2 142.002 Q 5.2 137.402 6.1 112.802 Q 7 88.202 7 67.902 Q 7 49.743 6.36 37.746 A 272.265 272.265 0 0 0 6.2 35.002 A 224.845 224.845 0 0 0 5.694 28.412 Q 4.79 18.686 3.307 14.473 A 8.838 8.838 0 0 0 2.2 12.202 A 29.897 29.897 0 0 1 1.452 11.212 Q 0.313 9.631 0.068 8.74 A 1.668 1.668 0 0 1 0 8.302 A 1.37 1.37 0 0 1 0.248 7.553 Q 0.738 6.8 2.2 6.002 Q 15 0.002 48.6 0.002 Q 68.059 0.002 80.454 7.897 A 39.931 39.931 0 0 1 89 15.202 A 29.627 29.627 0 0 1 95.855 30.891 A 39.733 39.733 0 0 1 96.2 36.202 A 32.968 32.968 0 0 1 95.303 44.036 A 27.332 27.332 0 0 1 93.2 49.802 A 30.107 30.107 0 0 1 90.307 54.516 A 21.604 21.604 0 0 1 85.8 59.002 Q 77.4 65.402 70 66.802 Z M 651.4 66.802 L 648.4 67.402 A 11.815 11.815 0 0 0 647.666 67.626 Q 646.2 68.131 646.2 68.702 A 0.508 0.508 0 0 0 646.398 69.032 Q 647.039 69.639 649.751 70.72 A 65.148 65.148 0 0 0 651 71.202 A 27.946 27.946 0 0 1 657.78 74.925 A 33.78 33.78 0 0 1 660.1 76.802 Q 664.4 80.602 666.2 86.002 Q 669 94.202 669 103.602 A 104.763 104.763 0 0 0 669.165 109.675 Q 669.338 112.641 669.691 115.183 A 45.63 45.63 0 0 0 670.4 119.102 A 51.581 51.581 0 0 0 671.334 122.631 Q 672.425 126.202 673.8 128.402 Q 677.8 135.202 681.2 136.802 L 682.6 137.602 A 3.276 3.276 0 0 1 683.233 138.141 A 2.131 2.131 0 0 1 683.8 139.602 A 2.366 2.366 0 0 1 682.981 141.278 Q 681.365 142.874 676.562 144.242 A 56.605 56.605 0 0 1 674 144.902 Q 665.507 146.895 660.319 147.161 A 29.735 29.735 0 0 1 658.8 147.202 A 20.028 20.028 0 0 1 653.779 146.62 Q 647.441 144.978 645.3 138.702 A 37.688 37.688 0 0 1 643.964 133.333 Q 642.913 127.553 642.568 118.827 A 234.624 234.624 0 0 1 642.4 109.602 L 642.4 98.602 Q 642.4 81.202 632 76.402 Q 628 74.602 622.4 74.602 L 622.2 74.602 Q 620.4 74.602 620.4 71.102 A 12.702 12.702 0 0 1 621.22 66.688 A 17.01 17.01 0 0 1 622.5 64.002 A 19.461 19.461 0 0 1 623.332 62.688 Q 624.733 60.677 625.888 60.435 A 1.516 1.516 0 0 1 626.2 60.402 A 29.355 29.355 0 0 0 631.63 59.924 A 21.418 21.418 0 0 0 637.6 57.902 A 22.263 22.263 0 0 0 640.953 55.781 Q 642.809 54.345 644.039 52.644 A 13.011 13.011 0 0 0 644.6 51.802 A 51.93 51.93 0 0 0 647.013 47.375 Q 649.244 42.719 649.579 39.056 A 14.806 14.806 0 0 0 649.6 38.802 L 649.6 36.202 Q 649.6 29.915 647.868 25.288 A 21.094 21.094 0 0 0 647.2 23.702 A 21.459 21.459 0 0 0 645.408 20.562 Q 643.563 17.915 641.2 16.602 A 27.261 27.261 0 0 0 633.813 13.89 A 24 24 0 0 0 629 13.402 A 63.688 63.688 0 0 0 624.997 13.52 Q 621.425 13.746 618.8 14.402 A 30.023 30.023 0 0 0 616.915 15.003 Q 614.24 15.963 613.491 16.991 A 1.368 1.368 0 0 0 613.2 17.802 A 753.734 753.734 0 0 0 611.463 59.123 A 670.681 670.681 0 0 0 611.4 68.302 A 1406.05 1406.05 0 0 0 611.444 79.74 Q 611.575 95.827 612.1 105.502 Q 612.726 117.042 613.352 124.58 A 314.252 314.252 0 0 0 613.5 126.302 Q 614.123 133.338 614.192 135.218 A 10.934 10.934 0 0 1 614.2 135.602 A 7.546 7.546 0 0 1 614.101 136.871 Q 613.987 137.541 613.739 138.06 A 2.918 2.918 0 0 1 612.8 139.202 A 24.783 24.783 0 0 1 604.398 144.193 Q 597.313 146.802 587 146.802 A 6.657 6.657 0 0 1 585.943 146.726 Q 584.089 146.426 584.004 144.947 A 2.525 2.525 0 0 1 584 144.802 A 2.551 2.551 0 0 1 584.028 144.471 Q 584.129 143.73 584.6 142.002 Q 586.6 137.402 587.5 112.802 Q 588.4 88.202 588.4 67.902 Q 588.4 49.743 587.76 37.746 A 272.265 272.265 0 0 0 587.6 35.002 A 224.845 224.845 0 0 0 587.094 28.412 Q 586.19 18.686 584.707 14.473 A 8.838 8.838 0 0 0 583.6 12.202 A 29.897 29.897 0 0 1 582.852 11.212 Q 581.713 9.631 581.468 8.74 A 1.668 1.668 0 0 1 581.4 8.302 A 1.37 1.37 0 0 1 581.648 7.553 Q 582.138 6.8 583.6 6.002 Q 596.4 0.002 630 0.002 Q 649.459 0.002 661.854 7.897 A 39.931 39.931 0 0 1 670.4 15.202 A 29.627 29.627 0 0 1 677.255 30.891 A 39.733 39.733 0 0 1 677.6 36.202 A 32.968 32.968 0 0 1 676.703 44.036 A 27.332 27.332 0 0 1 674.6 49.802 A 30.107 30.107 0 0 1 671.707 54.516 A 21.604 21.604 0 0 1 667.2 59.002 Q 658.8 65.402 651.4 66.802 Z M 209.6 70.402 L 208.8 72.402 Q 206 90.402 206 141.802 Q 206 165.002 206.9 175.102 A 914.381 914.381 0 0 1 207.206 178.605 Q 207.8 185.577 207.8 187.202 Q 207.8 189.202 206.6 190.802 A 33.904 33.904 0 0 1 201.214 196.304 A 45.579 45.579 0 0 1 195.8 200.102 A 38.116 38.116 0 0 1 191.706 202.264 Q 189.541 203.233 187.564 203.718 A 15.82 15.82 0 0 1 183.8 204.202 Q 182.036 204.202 181.828 202.181 A 5.649 5.649 0 0 1 181.8 201.602 Q 185 181.402 186.8 112.602 Q 187.158 94.533 187.196 82.224 A 921.097 921.097 0 0 0 187.2 79.402 Q 187.2 66.402 185.4 54.602 Q 185.4 52.602 189.4 52.602 A 26.875 26.875 0 0 1 192.579 52.78 Q 194.176 52.971 195.549 53.365 A 15.097 15.097 0 0 1 196.3 53.602 A 20.343 20.343 0 0 1 197.797 54.18 Q 199.247 54.813 200.087 55.517 A 4.804 4.804 0 0 1 200.4 55.802 A 96.874 96.874 0 0 0 201.158 56.552 Q 203.121 58.473 203.815 58.888 A 0.655 0.655 0 0 0 204.099 59.002 Q 204.528 59.002 206.493 57.684 A 57.784 57.784 0 0 0 207.2 57.202 Q 215 52.202 224.5 52.202 A 31.708 31.708 0 0 1 233.788 53.517 A 27.074 27.074 0 0 1 241.1 57.002 Q 248.2 61.802 251.2 69.602 Q 256.6 83.002 256.6 98.002 Q 256.6 112.802 251.2 127.602 A 34.412 34.412 0 0 1 246.723 135.982 A 29.784 29.784 0 0 1 242.4 140.702 Q 236.6 145.802 228.8 145.802 Q 214.155 145.802 213.437 129.705 A 38.221 38.221 0 0 1 213.4 128.002 A 17.607 17.607 0 0 1 213.459 126.494 Q 213.744 123.202 215.4 123.202 A 0.896 0.896 0 0 1 215.603 123.234 Q 216.156 123.371 217.7 124.102 Q 219.6 125.002 221.4 125.002 Q 233.537 125.002 235.3 103.014 A 101.866 101.866 0 0 0 235.6 94.902 A 89.507 89.507 0 0 0 235.088 84.864 Q 233.94 74.762 230.224 69.747 A 11.611 11.611 0 0 0 220.4 64.802 A 15.433 15.433 0 0 0 217.088 65.14 A 11.24 11.24 0 0 0 213.3 66.702 Q 210.709 68.399 209.795 70.017 A 4.475 4.475 0 0 0 209.6 70.402 Z M 288.2 35.802 L 288 55.202 Q 288 56.402 288.8 56.402 Q 289.58 56.402 290.359 55.832 A 4.112 4.112 0 0 0 290.4 55.802 A 15.773 15.773 0 0 1 294.414 53.902 Q 299.028 52.402 306.2 52.402 Q 318.575 52.402 325.772 58.135 A 22.651 22.651 0 0 1 331.4 64.802 Q 333.436 68.405 333.878 73.848 A 39.053 39.053 0 0 1 334 77.002 Q 334 82.821 333.472 92.04 A 604.914 604.914 0 0 1 333.1 98.002 A 764.596 764.596 0 0 0 332.706 104.215 Q 332.2 112.802 332.2 117.002 A 107.276 107.276 0 0 0 332.508 125.465 Q 333.145 133.486 335.106 138.391 A 15.919 15.919 0 0 0 337.8 143.002 A 4.508 4.508 0 0 1 338.317 143.612 Q 338.8 144.307 338.8 145.002 A 1.135 1.135 0 0 1 338.143 145.955 Q 336.548 146.926 331.079 146.997 A 68.281 68.281 0 0 1 330.2 147.002 Q 310.478 147.002 307.522 131.394 A 32.226 32.226 0 0 1 307 125.402 A 49.77 49.77 0 0 1 307.353 119.815 Q 308.033 113.849 310.024 105.653 A 209.927 209.927 0 0 1 311 101.802 Q 315 86.602 315 79.402 A 24.454 24.454 0 0 0 314.643 75.08 Q 313.898 70.938 311.6 68.302 A 11.13 11.13 0 0 0 304.701 64.589 A 16.109 16.109 0 0 0 302.2 64.402 A 22.413 22.413 0 0 0 298.391 64.706 Q 296.327 65.062 294.665 65.837 A 11.269 11.269 0 0 0 292.7 67.002 A 17.209 17.209 0 0 0 290.779 68.644 Q 289.865 69.56 289.27 70.499 A 7.317 7.317 0 0 0 288.4 72.402 L 287.8 75.002 A 73.873 73.873 0 0 0 287.732 77.011 Q 287.6 82.627 287.6 99.202 A 654.092 654.092 0 0 0 287.648 107.443 Q 287.819 120.937 288.6 125.702 Q 289.558 131.545 289.598 132.525 A 1.89 1.89 0 0 1 289.6 132.602 Q 289.6 138.402 281.8 142.902 A 35.893 35.893 0 0 1 274.652 146.095 A 27.369 27.369 0 0 1 266.4 147.402 A 3.485 3.485 0 0 1 265.225 147.22 Q 263.6 146.64 263.6 144.202 L 264 140.402 A 516.051 516.051 0 0 0 267.729 97.373 A 642.071 642.071 0 0 0 268.4 67.602 Q 268.4 52.402 267.2 36.802 L 267 32.402 Q 266.628 27.196 264.96 23.373 A 19.59 19.59 0 0 0 264.7 22.802 Q 263.239 19.726 261.955 18.306 A 5.412 5.412 0 0 0 261.2 17.602 L 259.4 16.602 A 4.62 4.62 0 0 1 258.796 16.196 Q 258.028 15.579 258.001 14.855 A 1.418 1.418 0 0 1 258 14.802 A 2.549 2.549 0 0 1 258.625 13.272 Q 260.005 11.487 264.433 9.28 A 64.411 64.411 0 0 1 267.4 7.902 A 83.506 83.506 0 0 1 271.831 6.108 Q 276.325 4.449 279.566 3.983 A 16.506 16.506 0 0 1 281.9 3.802 Q 287 3.802 287.4 6.002 Q 288.013 13.812 288.156 27.131 A 806.724 806.724 0 0 1 288.2 35.802 Z M 172.6 83.202 L 172.2 108.802 A 189.24 189.24 0 0 0 172.439 118.734 Q 173.176 132.674 176.18 138.325 A 9.34 9.34 0 0 0 178 140.802 A 2.949 2.949 0 0 1 178.518 141.485 A 2.319 2.319 0 0 1 178.8 142.602 A 1.702 1.702 0 0 1 177.815 144.031 Q 175.422 145.488 167.218 145.594 A 102.422 102.422 0 0 1 165.9 145.602 Q 153 145.602 152.2 138.002 A 19.445 19.445 0 0 1 152.122 137.033 Q 152.029 135.459 152.007 132.526 A 258.428 258.428 0 0 1 152 130.602 L 152.8 98.602 A 1.743 1.743 0 0 0 152.709 98.014 Q 152.434 97.245 151.325 97.204 A 3.444 3.444 0 0 0 151.2 97.202 Q 141.6 97.202 133.2 102.602 A 22.146 22.146 0 0 0 128.77 106.27 A 14.577 14.577 0 0 0 124.8 116.402 Q 124.8 120.802 127.2 123.802 A 8.665 8.665 0 0 0 129.199 125.659 A 6.955 6.955 0 0 0 133.1 126.802 Q 136.051 126.802 138.149 125.807 A 8.216 8.216 0 0 0 138.9 125.402 A 305.199 305.199 0 0 1 139.696 124.919 Q 141.062 124.093 141.49 123.86 A 3.654 3.654 0 0 1 141.6 123.802 A 3.109 3.109 0 0 1 144.068 125.614 Q 145 127.395 145 130.902 A 11.949 11.949 0 0 1 140.748 140.216 A 17.452 17.452 0 0 1 138.8 141.702 A 24.956 24.956 0 0 1 131.686 145.003 A 21.955 21.955 0 0 1 125.8 145.802 A 32.298 32.298 0 0 1 120.26 145.351 Q 117.087 144.798 114.449 143.569 A 20.035 20.035 0 0 1 114.1 143.402 Q 110.628 141.702 108.511 139.7 A 12.61 12.61 0 0 1 107 138.002 Q 104.8 135.002 103.4 131.202 Q 102.328 127.68 102.077 124.862 A 18.71 18.71 0 0 1 102 123.202 A 36.042 36.042 0 0 1 103.316 113.212 A 27.262 27.262 0 0 1 110.8 100.802 A 46.42 46.42 0 0 1 124.503 91.844 A 60.798 60.798 0 0 1 133.4 88.802 Q 151.6 85.202 152.4 82.202 Q 152.852 80.544 152.964 77.18 A 72.194 72.194 0 0 0 153 74.802 A 14.952 14.952 0 0 0 152.455 70.575 Q 150.574 64.202 142.2 64.202 Q 137.6 64.202 134 67.102 A 10.05 10.05 0 0 0 131.603 69.816 A 8.865 8.865 0 0 0 130.4 74.402 L 131.6 79.202 Q 131.249 82.182 125.984 83.011 A 23.452 23.452 0 0 1 124.4 83.202 L 122.2 83.402 Q 116.2 83.402 112.7 80.402 A 9.832 9.832 0 0 1 109.226 73.247 A 13.583 13.583 0 0 1 109.2 72.402 A 11.574 11.574 0 0 1 109.602 69.468 Q 109.949 68.143 110.596 66.718 A 23.383 23.383 0 0 1 111.3 65.302 A 20.233 20.233 0 0 1 114.268 61.106 A 17.503 17.503 0 0 1 116.6 59.002 A 17.118 17.118 0 0 1 118.942 57.551 Q 121.479 56.225 125.237 55.074 A 63.112 63.112 0 0 1 126.5 54.702 A 50.511 50.511 0 0 1 134.68 53.069 A 42.56 42.56 0 0 1 139.4 52.802 Q 144.51 52.802 147.718 53.074 A 39.638 39.638 0 0 1 149 53.202 A 40.849 40.849 0 0 1 151.337 53.554 Q 153.815 53.993 157.176 54.821 A 154.263 154.263 0 0 1 158.3 55.102 A 20.346 20.346 0 0 1 165.254 58.285 A 19.153 19.153 0 0 1 168.1 60.802 A 18.047 18.047 0 0 1 170.598 64.16 A 12.778 12.778 0 0 1 172.3 69.702 A 107.446 107.446 0 0 1 172.431 72.308 Q 172.547 75.26 172.584 79.302 A 435.885 435.885 0 0 1 172.6 83.202 Z M 411.6 83.202 L 411.2 108.802 A 189.24 189.24 0 0 0 411.439 118.734 Q 412.176 132.674 415.18 138.325 A 9.34 9.34 0 0 0 417 140.802 A 2.949 2.949 0 0 1 417.518 141.485 A 2.319 2.319 0 0 1 417.8 142.602 A 1.702 1.702 0 0 1 416.815 144.031 Q 414.422 145.488 406.218 145.594 A 102.422 102.422 0 0 1 404.9 145.602 Q 392 145.602 391.2 138.002 A 19.445 19.445 0 0 1 391.122 137.033 Q 391.029 135.459 391.007 132.526 A 258.428 258.428 0 0 1 391 130.602 L 391.8 98.602 A 1.743 1.743 0 0 0 391.709 98.014 Q 391.434 97.245 390.325 97.204 A 3.444 3.444 0 0 0 390.2 97.202 Q 380.6 97.202 372.2 102.602 A 22.146 22.146 0 0 0 367.77 106.27 A 14.577 14.577 0 0 0 363.8 116.402 Q 363.8 120.802 366.2 123.802 A 8.665 8.665 0 0 0 368.199 125.659 A 6.955 6.955 0 0 0 372.1 126.802 Q 375.051 126.802 377.149 125.807 A 8.216 8.216 0 0 0 377.9 125.402 A 305.199 305.199 0 0 1 378.696 124.919 Q 380.062 124.093 380.49 123.86 A 3.654 3.654 0 0 1 380.6 123.802 A 3.109 3.109 0 0 1 383.068 125.614 Q 384 127.395 384 130.902 A 11.949 11.949 0 0 1 379.748 140.216 A 17.452 17.452 0 0 1 377.8 141.702 A 24.956 24.956 0 0 1 370.686 145.003 A 21.955 21.955 0 0 1 364.8 145.802 A 32.298 32.298 0 0 1 359.26 145.351 Q 356.087 144.798 353.449 143.569 A 20.035 20.035 0 0 1 353.1 143.402 Q 349.628 141.702 347.511 139.7 A 12.61 12.61 0 0 1 346 138.002 Q 343.8 135.002 342.4 131.202 Q 341.328 127.68 341.077 124.862 A 18.71 18.71 0 0 1 341 123.202 A 36.042 36.042 0 0 1 342.316 113.212 A 27.262 27.262 0 0 1 349.8 100.802 A 46.42 46.42 0 0 1 363.503 91.844 A 60.798 60.798 0 0 1 372.4 88.802 Q 390.6 85.202 391.4 82.202 Q 391.852 80.544 391.964 77.18 A 72.194 72.194 0 0 0 392 74.802 A 14.952 14.952 0 0 0 391.455 70.575 Q 389.574 64.202 381.2 64.202 Q 376.6 64.202 373 67.102 A 10.05 10.05 0 0 0 370.603 69.816 A 8.865 8.865 0 0 0 369.4 74.402 L 370.6 79.202 Q 370.249 82.182 364.984 83.011 A 23.452 23.452 0 0 1 363.4 83.202 L 361.2 83.402 Q 355.2 83.402 351.7 80.402 A 9.832 9.832 0 0 1 348.226 73.247 A 13.583 13.583 0 0 1 348.2 72.402 A 11.574 11.574 0 0 1 348.602 69.468 Q 348.949 68.143 349.596 66.718 A 23.383 23.383 0 0 1 350.3 65.302 A 20.233 20.233 0 0 1 353.268 61.106 A 17.503 17.503 0 0 1 355.6 59.002 A 17.118 17.118 0 0 1 357.942 57.551 Q 360.479 56.225 364.237 55.074 A 63.112 63.112 0 0 1 365.5 54.702 A 50.511 50.511 0 0 1 373.68 53.069 A 42.56 42.56 0 0 1 378.4 52.802 Q 383.51 52.802 386.718 53.074 A 39.638 39.638 0 0 1 388 53.202 A 40.849 40.849 0 0 1 390.337 53.554 Q 392.815 53.993 396.176 54.821 A 154.263 154.263 0 0 1 397.3 55.102 A 20.346 20.346 0 0 1 404.254 58.285 A 19.153 19.153 0 0 1 407.1 60.802 A 18.047 18.047 0 0 1 409.598 64.16 A 12.778 12.778 0 0 1 411.3 69.702 A 107.446 107.446 0 0 1 411.431 72.308 Q 411.547 75.26 411.584 79.302 A 435.885 435.885 0 0 1 411.6 83.202 Z M 485.673 125.919 A 31.486 31.486 0 0 0 486.4 119.002 A 4.507 4.507 0 0 0 486.373 118.529 Q 486.254 117.399 485.6 115.602 A 8.195 8.195 0 0 0 485.479 115.29 Q 484.704 113.402 483.5 113.402 Q 482.2 113.402 481.4 115.002 A 26.564 26.564 0 0 1 480.468 116.86 A 22.338 22.338 0 0 1 476.2 122.402 Q 470.2 128.002 461.6 128.002 A 21.854 21.854 0 0 1 457.269 127.595 A 14.204 14.204 0 0 1 448.6 122.402 A 20.167 20.167 0 0 1 448.266 121.884 Q 447.549 120.734 446.895 119.354 A 35.58 35.58 0 0 1 445.7 116.502 Q 444.4 113.002 444.4 111.202 Q 444.4 110.097 445.396 109.864 A 2.661 2.661 0 0 1 446 109.802 A 98.698 98.698 0 0 0 447.438 109.643 Q 458.138 108.377 466.2 105.002 A 79.924 79.924 0 0 0 466.556 104.852 Q 471.96 102.559 475.506 100.105 A 23.798 23.798 0 0 0 478.8 97.402 Q 482.8 93.402 485.2 88.402 Q 486.963 84.73 487.646 82.407 A 12.27 12.27 0 0 0 488 80.902 Q 488.275 79.183 488.361 76.614 A 75.411 75.411 0 0 0 488.4 74.102 A 14.474 14.474 0 0 0 488.378 73.3 Q 488.257 71.123 487.483 68.82 A 24.245 24.245 0 0 0 485.8 65.002 A 21.437 21.437 0 0 0 480.095 57.881 Q 476.1 54.674 470.376 53.344 A 39.701 39.701 0 0 0 461.4 52.402 A 45.579 45.579 0 0 0 454.886 52.851 A 31.91 31.91 0 0 0 431.7 67.602 A 59.715 59.715 0 0 0 425.476 80.133 A 65.397 65.397 0 0 0 421.8 102.302 A 90.56 90.56 0 0 0 421.867 105.823 Q 422.156 113.23 423.677 119.574 A 48.564 48.564 0 0 0 429.8 134.402 Q 437.8 147.002 454.6 147.002 A 38.637 38.637 0 0 0 459.769 146.646 A 47.577 47.577 0 0 0 467.2 145.002 A 37.938 37.938 0 0 0 470.621 143.772 A 30.579 30.579 0 0 0 476.3 140.702 A 16.647 16.647 0 0 0 477.944 139.399 Q 479.478 138.022 480.876 136.137 A 32.458 32.458 0 0 0 483.3 132.302 A 24.56 24.56 0 0 0 485.673 125.919 Z M 524.4 28.802 L 523.2 102.202 Q 523.2 135.881 525.309 143.105 A 10.777 10.777 0 0 0 525.4 143.402 Q 526 144.602 526 145.802 Q 526 148.141 520.493 148.201 A 26.973 26.973 0 0 1 520.2 148.202 Q 515.17 148.202 509.163 146.021 A 50.527 50.527 0 0 1 507.3 145.302 A 21.119 21.119 0 0 1 504.447 143.901 Q 500.2 141.36 500.2 137.802 Q 504.017 111.08 504.192 67.236 A 1065.261 1065.261 0 0 0 504.2 63.002 L 503.4 32.402 Q 503.028 27.196 501.36 23.373 A 19.59 19.59 0 0 0 501.1 22.802 A 28.172 28.172 0 0 0 500.156 20.977 Q 499.154 19.213 498.18 18.249 A 5.294 5.294 0 0 0 497.4 17.602 L 495.8 16.602 A 4.62 4.62 0 0 1 495.196 16.196 Q 494.428 15.579 494.401 14.855 A 1.418 1.418 0 0 1 494.4 14.802 A 2.704 2.704 0 0 1 495.009 13.229 Q 496.702 10.917 503.1 7.902 Q 511.8 3.802 520 3.802 A 6.972 6.972 0 0 1 521.256 3.906 Q 523.287 4.279 523.6 6.002 A 40.335 40.335 0 0 1 523.912 8.871 Q 524.286 13.603 524.373 22.773 A 633.276 633.276 0 0 1 524.4 28.802 Z M 442.8 92.402 L 443 97.402 A 1.26 1.26 0 0 0 443.113 97.955 Q 443.37 98.487 444.211 98.582 A 3.5 3.5 0 0 0 444.6 98.602 A 31.512 31.512 0 0 0 450.775 97.425 A 24.873 24.873 0 0 0 455.8 95.302 A 28.22 28.22 0 0 0 459.184 93.086 Q 461.538 91.274 463 89.202 A 48.166 48.166 0 0 0 465.517 84.878 Q 467.877 80.246 468.189 76.544 A 13.95 13.95 0 0 0 468.2 76.402 L 468.4 74.002 A 19.907 19.907 0 0 0 468.045 70.06 Q 466.804 63.947 461.225 63.283 A 12.057 12.057 0 0 0 459.8 63.202 A 11.923 11.923 0 0 0 450.589 67.319 A 16.545 16.545 0 0 0 449.4 68.802 Q 442.8 77.602 442.8 92.402 Z M 555 143.402 L 550.2 143.602 Q 546.339 143.602 544.548 142.308 A 3.805 3.805 0 0 1 543.8 141.602 A 5.519 5.519 0 0 1 542.982 140.106 Q 542.392 138.554 542.194 136.088 A 32.099 32.099 0 0 1 542.1 134.102 A 22.179 22.179 0 0 1 542.096 133.699 Q 542.096 130.559 543.014 128.473 A 6.731 6.731 0 0 1 544.6 126.202 Q 547.2 123.802 553.4 123.802 Q 559.6 123.802 562.5 126.102 Q 564.972 128.063 565.337 132.13 A 16.485 16.485 0 0 1 565.4 133.602 Q 565.4 144.746 563.489 146.337 A 1.056 1.056 0 0 1 562.8 146.602 L 561.8 146.002 Q 560.544 143.67 556.07 143.43 A 19.976 19.976 0 0 0 555 143.402 Z M 474.6 35.602 L 470.4 35.802 Q 466.6 35.802 465.2 34.102 Q 463.8 32.402 463.8 27.802 A 16.581 16.581 0 0 1 463.937 25.586 Q 464.323 22.731 465.8 21.402 A 5.361 5.361 0 0 1 467.43 20.434 Q 469.055 19.79 471.622 19.645 A 27.944 27.944 0 0 1 473.2 19.602 A 21.955 21.955 0 0 1 475.694 19.733 Q 478.365 20.04 479.911 21.062 A 5.049 5.049 0 0 1 480.7 21.702 Q 482.562 23.564 482.773 26.92 A 14.062 14.062 0 0 1 482.8 27.802 A 84.628 84.628 0 0 1 482.751 30.798 Q 482.534 36.909 481.346 37.976 A 0.802 0.802 0 0 1 480.8 38.202 L 480 37.602 A 3.418 3.418 0 0 0 478.501 36.293 Q 477.265 35.697 475.256 35.615 A 16.17 16.17 0 0 0 474.6 35.602 Z M 439.6 35.602 L 435.4 35.802 Q 431.6 35.802 430.2 34.102 Q 428.8 32.402 428.8 27.802 A 16.581 16.581 0 0 1 428.937 25.586 Q 429.323 22.731 430.8 21.402 A 5.361 5.361 0 0 1 432.43 20.434 Q 434.055 19.79 436.622 19.645 A 27.944 27.944 0 0 1 438.2 19.602 A 21.955 21.955 0 0 1 440.694 19.733 Q 443.365 20.04 444.911 21.062 A 5.049 5.049 0 0 1 445.7 21.702 Q 447.562 23.564 447.773 26.92 A 14.062 14.062 0 0 1 447.8 27.802 Q 447.8 33.49 447.272 35.679 A 4.391 4.391 0 0 1 447 36.502 Q 446.244 38.109 445.845 38.197 A 0.209 0.209 0 0 1 445.8 38.202 L 445 37.602 A 3.418 3.418 0 0 0 443.501 36.293 Q 442.265 35.697 440.256 35.615 A 16.17 16.17 0 0 0 439.6 35.602 Z" vector-effect="non-scaling-stroke"/></g></svg>